/* XPM */
static char * bitcoin32_xpm[] = {
"32 32 482 2",
"  	c None",
". 	c #FFFFFF",
"+ 	c #FCFCFC",
"@ 	c #9B9A9B",
"# 	c #5E5D62",
"$ 	c #272629",
"% 	c #040207",
"& 	c #0C0A0E",
"* 	c #060408",
"= 	c #07050A",
"- 	c #252327",
"; 	c #59585B",
"> 	c #9D9C9E",
", 	c #FAFAFA",
"' 	c #FDFDFD",
") 	c #F1F1F1",
"! 	c #6C6A6D",
"~ 	c #0F0D12",
"{ 	c #242226",
"] 	c #211F23",
"^ 	c #232025",
"/ 	c #262428",
"( 	c #232125",
"_ 	c #242126",
": 	c #252228",
"< 	c #141216",
"[ 	c #69686B",
"} 	c #EFEFEF",
"| 	c #908F91",
"1 	c #110F13",
"2 	c #232124",
"3 	c #211F22",
"4 	c #222125",
"5 	c #211F24",
"6 	c #79777B",
"7 	c #3C3B3D",
"8 	c #26242A",
"9 	c #262328",
"0 	c #151319",
"a 	c #8C8C8E",
"b 	c #484649",
"c 	c #211E23",
"d 	c #212023",
"e 	c #26232A",
"f 	c #201E23",
"g 	c #211E22",
"h 	c #252227",
"i 	c #141116",
"j 	c #E6E6E6",
"k 	c #666566",
"l 	c #1E1B20",
"m 	c #29262C",
"n 	c #242327",
"o 	c #352C39",
"p 	c #252429",
"q 	c #2A292F",
"r 	c #47464A",
"s 	c #3B383F",
"t 	c #242125",
"u 	c #231F24",
"v 	c #414043",
"w 	c #727272",
"x 	c #373539",
"y 	c #262429",
"z 	c #27242A",
"A 	c #252328",
"B 	c #28272E",
"C 	c #2A2930",
"D 	c #2A2B30",
"E 	c #2C2F33",
"F 	c #393D3F",
"G 	c #49474A",
"H 	c #242225",
"I 	c #221F23",
"J 	c #222023",
"K 	c #232024",
"L 	c #222024",
"M 	c #A7A6A7",
"N 	c #6E6E6E",
"O 	c #606061",
"P 	c #2A272D",
"Q 	c #27262A",
"R 	c #28272C",
"S 	c #27262B",
"T 	c #292A2F",
"U 	c #2A2E32",
"V 	c #2A3133",
"W 	c #2E3436",
"X 	c #363944",
"Y 	c #484B56",
"Z 	c #8F8F90",
"` 	c #232023",
" .	c #231F23",
"..	c #252226",
"+.	c #1B191D",
"@.	c #848484",
"#.	c #28282C",
"$.	c #26272B",
"%.	c #2C2D34",
"&.	c #2C3636",
"*.	c #2B3736",
"=.	c #293132",
"-.	c #232A2A",
";.	c #2A3533",
">.	c #8A9391",
",.	c #FEFEFE",
"'.	c #161317",
").	c #252326",
"!.	c #252225",
"~.	c #858486",
"{.	c #7C7C7C",
"].	c #545557",
"^.	c #27272B",
"/.	c #26292B",
"(.	c #2B3434",
"_.	c #2F403C",
":.	c #2D3D39",
"<.	c #2C3C39",
"[.	c #273131",
"}.	c #33464D",
"|.	c #183528",
"1.	c #ECF0EE",
"2.	c #6B6A6C",
"3.	c #272327",
"4.	c #242124",
"5.	c #232123",
"6.	c #262327",
"7.	c #262227",
"8.	c #262325",
"9.	c #272428",
"0.	c #272529",
"a.	c #141115",
"b.	c #F7F7F7",
"c.	c #7E7F7F",
"d.	c #202325",
"e.	c #2D3538",
"f.	c #324841",
"g.	c #31483F",
"h.	c #2C423A",
"i.	c #293935",
"j.	c #293834",
"k.	c #294139",
"l.	c #2A4B3C",
"m.	c #2E5744",
"n.	c #688577",
"o.	c #252224",
"p.	c #262427",
"q.	c #252125",
"r.	c #282528",
"s.	c #242123",
"t.	c #2D2A33",
"u.	c #29262A",
"v.	c #292629",
"w.	c #28262A",
"x.	c #666467",
"y.	c #454A4A",
"z.	c #2D453B",
"A.	c #315240",
"B.	c #2A4337",
"C.	c #283F36",
"D.	c #263933",
"E.	c #2F4840",
"F.	c #2C5743",
"G.	c #335B48",
"H.	c #2B5841",
"I.	c #123B29",
"J.	c #F4F4F3",
"K.	c #9C9B9C",
"L.	c #272528",
"M.	c #2A282E",
"N.	c #2A272B",
"O.	c #29262B",
"P.	c #2A292C",
"Q.	c #29282B",
"R.	c #201E21",
"S.	c #CCCCCC",
"T.	c #707371",
"U.	c #2E5E42",
"V.	c #2C4C3B",
"W.	c #274034",
"X.	c #2A4439",
"Y.	c #274035",
"Z.	c #2A553E",
"`.	c #2D5B44",
" +	c #28533B",
".+	c #26503B",
"++	c #213F32",
"@+	c #9BA5A5",
"#+	c #5F5F5F",
"$+	c #272628",
"%+	c #242224",
"&+	c #2B292C",
"*+	c #292729",
"=+	c #292829",
"-+	c #2B2A2C",
";+	c #2C2D2D",
">+	c #29282A",
",+	c #3C3C3E",
"'+	c #817E80",
")+	c #385E48",
"!+	c #284436",
"~+	c #284537",
"{+	c #28483A",
"]+	c #274C38",
"^+	c #2C6142",
"/+	c #264E39",
"(+	c #254E38",
"_+	c #214233",
":+	c #20352F",
"<+	c #4B5554",
"[+	c #2A2B29",
"}+	c #252324",
"|+	c #2B2B2B",
"1+	c #2F3131",
"2+	c #292A2A",
"3+	c #2A2A2B",
"4+	c #2D322F",
"5+	c #2D2F2F",
"6+	c #2B2E2C",
"7+	c #A2A4A3",
"8+	c #5D6B63",
"9+	c #274A37",
"0+	c #274E39",
"a+	c #264B38",
"b+	c #295B3E",
"c+	c #285B3D",
"d+	c #234834",
"e+	c #234433",
"f+	c #22352E",
"g+	c #222E2C",
"h+	c #151C1C",
"i+	c #10140F",
"j+	c #252425",
"k+	c #272927",
"l+	c #2B302C",
"m+	c #2B312D",
"n+	c #2D312F",
"o+	c #2C332E",
"p+	c #2E3631",
"q+	c #2E3532",
"r+	c #202C24",
"s+	c #848082",
"t+	c #225136",
"u+	c #27563B",
"v+	c #28523A",
"w+	c #27603C",
"x+	c #214633",
"y+	c #213D30",
"z+	c #20322C",
"A+	c #222C2A",
"B+	c #212727",
"C+	c #050A0C",
"D+	c #FAFBFA",
"E+	c #141814",
"F+	c #272726",
"G+	c #2B332B",
"H+	c #2E3D30",
"I+	c #2F3A31",
"J+	c #2B362E",
"K+	c #2F3D32",
"L+	c #2D392F",
"M+	c #2F4032",
"N+	c #7F8F82",
"O+	c #4E6C59",
"P+	c #255639",
"Q+	c #204932",
"R+	c #234A35",
"S+	c #20362E",
"T+	c #212F2B",
"U+	c #212A29",
"V+	c #1F2626",
"W+	c #202526",
"X+	c #0F1416",
"Y+	c #EDEEEE",
"Z+	c #F9FAF9",
"`+	c #101511",
" @	c #293129",
".@	c #2D432E",
"+@	c #304B33",
"@@	c #2F4232",
"#@	c #304633",
"$@	c #2F4732",
"%@	c #325337",
"&@	c #225029",
"*@	c #EFF3F0",
"=@	c #7C7E7C",
"-@	c #173A29",
";@	c #213A2E",
">@	c #20302B",
",@	c #222A2A",
"'@	c #1E2425",
")@	c #1F2526",
"!@	c #0F1616",
"~@	c #ECECED",
"{@	c #0E1E0E",
"]@	c #2B482D",
"^@	c #315B34",
"/@	c #2E5031",
"(@	c #305333",
"_@	c #325A35",
":@	c #37713B",
"<@	c #36733B",
"[@	c #65A469",
"}@	c #7D7D7D",
"|@	c #3B4441",
"1@	c #212C29",
"2@	c #212A28",
"3@	c #1F2827",
"4@	c #202727",
"5@	c #222829",
"6@	c #212627",
"7@	c #202627",
"8@	c #050C0C",
"9@	c #244A25",
"0@	c #2E5F30",
"a@	c #316435",
"b@	c #2D5932",
"c@	c #347937",
"d@	c #398F3C",
"e@	c #3C963E",
"f@	c #348C38",
"g@	c #C1E1C2",
"h@	c #666868",
"i@	c #1E2826",
"j@	c #202928",
"k@	c #202927",
"l@	c #1F2525",
"m@	c #1F2324",
"n@	c #101717",
"o@	c #59835B",
"p@	c #2E6C30",
"q@	c #2E682F",
"r@	c #338036",
"s@	c #358736",
"t@	c #3EAF3D",
"u@	c #369739",
"v@	c #358F39",
"w@	c #262E2D",
"x@	c #202827",
"y@	c #202425",
"z@	c #1F2325",
"A@	c #1E2123",
"B@	c #47494B",
"C@	c #99B99A",
"D@	c #2D6E2E",
"E@	c #307B32",
"F@	c #328733",
"G@	c #2F7C31",
"H@	c #318733",
"I@	c #2F7D35",
"J@	c #98BE9A",
"K@	c #555857",
"L@	c #202626",
"M@	c #1F2323",
"N@	c #1F2224",
"O@	c #202225",
"P@	c #1E2021",
"Q@	c #1F2123",
"R@	c #8C8D8E",
"S@	c #F5F7F5",
"T@	c #114B15",
"U@	c #29602B",
"V@	c #265B2B",
"W@	c #28622B",
"X@	c #2A6B2E",
"Y@	c #16591B",
"Z@	c #838382",
"`@	c #17191C",
" #	c #1E2023",
".#	c #1E2022",
"+#	c #1D1F21",
"@#	c #212225",
"##	c #090A0D",
"$#	c #F0F1F1",
"%#	c #607962",
"&#	c #255029",
"*#	c #245527",
"=#	c #265C2A",
"-#	c #27562C",
";#	c #6E8271",
">#	c #EAEAEA",
",#	c #717473",
"'#	c #121616",
")#	c #181D1D",
"!#	c #444647",
"~#	c #747474",
"{#	c #808080",
"]#	c #434446",
"^#	c #252629",
"/#	c #202124",
"(#	c #57585A",
"_#	c #EAECEA",
":#	c #0F3813",
"<#	c #244C26",
"[#	c #223C25",
"}#	c #112215",
"|#	c #E0E2E1",
"1#	c #B5B7B6",
"2#	c #4D4F50",
"3#	c #0B0F10",
"4#	c #16181A",
"5#	c #323436",
"6#	c #868685",
"7#	c #767676",
"8#	c #17181C",
"9#	c #1E1F22",
"0#	c #222326",
"a#	c #0F1013",
"b#	c #E3E3E3",
"c#	c #7D877D",
"d#	c #212F24",
"e#	c #202923",
"f#	c #424745",
"g#	c #919293",
"h#	c #202223",
"i#	c #1A1C1D",
"j#	c #212227",
"k#	c #1F2022",
"l#	c #525254",
"m#	c #333436",
"n#	c #212326",
"o#	c #737475",
"p#	c #363838",
"q#	c #1C1F1F",
"r#	c #8F9090",
"s#	c #6B6B6D",
"t#	c #0C0E0F",
"u#	c #1F2024",
"v#	c #1D1E20",
"w#	c #1E1F21",
"x#	c #212325",
"y#	c #16191B",
"z#	c #424344",
"A#	c #565657",
"B#	c #2B2D2D",
"C#	c #18191A",
"D#	c #1F1F21",
"E#	c #1D1F20",
"F#	c #1D1D1E",
"G#	c #1E1F20",
"H#	c #1F2023",
"I#	c #202224",
"J#	c #1D2023",
"K#	c #282A2C",
"L#	c #343536",
"M#	c #202123",
"N#	c #1F2122",
"O#	c #1D1C1E",
"P#	c #1B1B1B",
"Q#	c #1C1B1C",
"R#	c #1D1D1D",
"S#	c #1C1D1D",
"T#	c #1C1C1D",
"U#	c #303031",
"V#	c #FBFAFB",
"W#	c #757576",
"X#	c #0E0F12",
"Y#	c #1F1F22",
"Z#	c #1C1C1C",
"`#	c #1E1D1E",
" $	c #0A0A0B",
".$	c #6F6F6E",
"+$	c #555657",
"@$	c #0C0C0E",
"#$	c #1D1E1F",
"$$	c #1B1B1C",
"%$	c #1E1E1E",
"&$	c #1F1F20",
"*$	c #090809",
"=$	c #505051",
"-$	c #DFDFDF",
";$	c #888889",
">$	c #080809",
",$	c #040405",
"'$	c #101010",
")$	c #101011",
"!$	c #050506",
"~$	c #050505",
"{$	c #3F3F40",
"]$	c #EBEBEB",
"^$	c #FAFAFB",
"/$	c #DEDEDE",
"                        . . . . . . . .                         ",
"                  . + @ # $ % & * = - ; > , .                   ",
"              ' ) ! ~ { ] ] ^ { / ( ( _ : < [ } '               ",
"            . | 1 2 3 4 5 ] ( 6 7 ( ^ 8 9 5 / 0 a .             ",
"          . b c ] d e f g h i j k l { m n h o p q r .           ",
"        . s - ] t u g ( { { v . w x y z A y B C D E F .         ",
"      . G H I 2 I J K L ( _ M . N O P Q R S T U V W X Y .       ",
"    ' Z ^ ` K K K K  .....+.. . N @.Q #.$.%.V &.*.=.-.;.>.,.    ",
"    } '.` H ).!.!.K ..h ..~.. . N {.].^./.(._.:.<.[.*.}.|.1.    ",
"  . 2.3.4.5.6.7.8...9.0.a.b.. . N {.c.d.e.f.g.h.i.j.k.l.m.n..   ",
"  , a.o.p.q.r.s.t.u.v.w.x.. . . N {.{.y.z.A.B.C.D.E.F.G.H.I.J.  ",
"  K.L.M.H N.r.u.O.P.Q.R.S.. . . N {.{.T.U.V.W.X.Y.Z.`. +.+++@+  ",
". #+$+%+&+*+=+u.-+;+>+,+. . . . N {.{.'+)+!+~+{+]+^+/+(+_+:+<+. ",
". [+>+}+|+1+2+3+4+5+6+7+. . . . N {.{.{.8+9+0+a+b+c+d+e+f+g+h+. ",
". i+j+k+l+m+n+o+p+q+r+. . . . . N {.{.{.s+t+u+v+w+x+y+z+A+B+C+. ",
"D+E+F+G+H+I+J+K+L+M+N+. . . . . N {.{.{.{.O+P+Q+R+S+T+U+V+W+X+Y+",
"Z+`+ @.@+@@@#@$@%@&@*@. . . . . N {.{.{.{.=@-@;@>@A+,@'@)@W+!@~@",
". {@]@^@/@(@_@:@<@[@. . . . . . N {.{.{.{.}@|@1@2@3@4@5@6@7@8@. ",
". 9@0@a@b@c@d@e@f@g@. . . . . . N {.{.{.{.{.h@i@j@k@4@l@m@l@n@. ",
". o@p@q@r@s@t@u@v@. . . . . . . N {.{.{.{.{.@.w@2@x@)@y@z@A@B@. ",
"  C@D@E@F@G@H@I@J@. . . . . . . N {.{.{.{.{.{.K@L@M@N@O@P@Q@R@  ",
"  S@T@U@V@W@X@Y@. . . . . . . . w {.{.{.{.{.{.Z@`@ #.#+#@###$#  ",
"  . %#&#*#=#-#;#. . . . . >#,#'#)#!#~#{#{.{.{.{.]#^#/# #.#(#.   ",
"    _#:#<#[#}#|#. . . 1#2#3#Q@O@.#Q@4#5#O 6#{.{.7#8#9#0#a#b#    ",
"    . c#d#e#f#. . g#h#i#Q@P@ #.#+#Q@Q@ #j#k#l#{#{#m#Q@n#o#.     ",
"      . p#q#r#s#t#k#u#v#w#.#k#k#Q@x#x#Q@Q@Q@A@y#z#A#Q@m#.       ",
"        ,.B#C#k#k#D#E#Q@Q@.#k#Q@k# #Q@Q@w#F#G#H#I#J#K#+         ",
"          ' L#M#w#w#.#P@.#.#k#N#M#O#P#Q#R#S#F#T#T#U#V#          ",
"            . W#X#k#w#k#Q@k#.#Y#Z#T#F#R#F#`#`# $.$.             ",
"              . b#+$@$k#E#N##$$$T#R#F#%$&$*$=$-$.               ",
"                  . } ;$z#>$,$'$)$!$~${$@.]$.                   ",
"                        . . ^$/$/$, . .                         "};
