/* XPM */
static char * bitcoin16_xpm[] = {
"16 16 170 2",
"  	c None",
". 	c #E9E9E9",
"+ 	c #8F8F91",
"@ 	c #7C7B7D",
"# 	c #7B7A7C",
"$ 	c #8C8C8E",
"% 	c #E9E9EA",
"& 	c #676568",
"* 	c #0E0D11",
"= 	c #1F1D21",
"- 	c #39373B",
"; 	c #29282B",
"> 	c #222025",
", 	c #110F14",
"' 	c #666568",
") 	c #E7E8E8",
"! 	c #D5D5D7",
"~ 	c #1B191D",
"{ 	c #232125",
"] 	c #232025",
"^ 	c #242125",
"/ 	c #979698",
"( 	c #434144",
"_ 	c #272429",
": 	c #242227",
"< 	c #2D2932",
"[ 	c #222227",
"} 	c #D5D6D5",
"| 	c #1C1A1D",
"1 	c #232024",
"2 	c #222023",
"3 	c #121014",
"4 	c #FFFFFF",
"5 	c #6D6D6D",
"6 	c #28282E",
"7 	c #2A2F32",
"8 	c #2B3434",
"9 	c #23282E",
"0 	c #E7E9E8",
"a 	c #686668",
"b 	c #242224",
"c 	c #262327",
"d 	c #242124",
"e 	c #69676A",
"f 	c #454648",
"g 	c #2C3636",
"h 	c #2F433D",
"i 	c #293634",
"j 	c #2E4340",
"k 	c #688275",
"l 	c #E9E8E8",
"m 	c #141216",
"n 	c #272427",
"o 	c #2B282E",
"p 	c #1E1C1F",
"q 	c #D5D4D5",
"r 	c #6C6C6C",
"s 	c #6F6F6F",
"t 	c #2B513D",
"u 	c #284036",
"v 	c #294439",
"w 	c #2E5B44",
"x 	c #123D29",
"y 	c #E7E8E9",
"z 	c #919190",
"A 	c #2C2C2D",
"B 	c #292729",
"C 	c #2D2F2E",
"D 	c #414242",
"E 	c #817E80",
"F 	c #355342",
"G 	c #274938",
"H 	c #2A5C3F",
"I 	c #244A36",
"J 	c #20352E",
"K 	c #848989",
"L 	c #838582",
"M 	c #282928",
"N 	c #2D362F",
"O 	c #2D352F",
"P 	c #2D3630",
"Q 	c #A8B0AA",
"R 	c #7C7C7C",
"S 	c #5D6F64",
"T 	c #255338",
"U 	c #234B35",
"V 	c #21312C",
"W 	c #222828",
"X 	c #7C7F80",
"Y 	c #818581",
"Z 	c #2E4830",
"` 	c #2F4B32",
" .	c #325435",
"..	c #2D6533",
"+.	c #838282",
"@.	c #1E332A",
"#.	c #202A28",
"$.	c #212728",
"%.	c #222728",
"&.	c #7D8080",
"*.	c #8DA58E",
"=.	c #2E6630",
"-.	c #327635",
";.	c #3CA33E",
">.	c #88BE8A",
",.	c #4B5050",
"'.	c #1F2526",
").	c #1E2224",
"!.	c #838686",
"~.	c #E5EEE5",
"{.	c #185C1A",
"].	c #2C702E",
"^.	c #1A681E",
"/.	c #F4F8F4",
"(.	c #717171",
"_.	c #7B7B7B",
":.	c #16191B",
"<.	c #1E2023",
"[.	c #0C0D10",
"}.	c #DEDFDF",
"|.	c #607B63",
"1.	c #265229",
"2.	c #5C705F",
"3.	c #FCFDFC",
"4.	c #909292",
"5.	c #212324",
"6.	c #212425",
"7.	c #4F5051",
"8.	c #7F7F7E",
"9.	c #7E7E7E",
"0.	c #3C3C3F",
"a.	c #212225",
"b.	c #5A5B5C",
"c.	c #E4E6E3",
"d.	c #0E1411",
"e.	c #A0A1A1",
"f.	c #6B6C6D",
"g.	c #0D0F11",
"h.	c #1E2021",
"i.	c #1E2022",
"j.	c #1F2123",
"k.	c #191A1D",
"l.	c #404244",
"m.	c #5B5B5C",
"n.	c #111315",
"o.	c #E0E0E1",
"p.	c #D2D3D3",
"q.	c #0B0C0D",
"r.	c #202123",
"s.	c #1F2122",
"t.	c #1F1F22",
"u.	c #1D1E1F",
"v.	c #1D1D1E",
"w.	c #1F1F21",
"x.	c #0E0F11",
"y.	c #CFD0D0",
"z.	c #E1E1E1",
"A.	c #595A5C",
"B.	c #0D0D0F",
"C.	c #1E1F21",
"D.	c #1D1D1D",
"E.	c #0C0B0C",
"F.	c #555556",
"G.	c #DFDFDF",
"H.	c #DCDCDC",
"I.	c #808181",
"J.	c #797979",
"K.	c #79797A",
"L.	c #7F7F7F",
"M.	c #D8D8D8",
"          . + @ # $ %           ",
"      % & * = - ; > , ' )       ",
"    ! ~ { ] ^ / ( _ : < [ }     ",
"  . | 1 2 1 3 4 5 > 6 7 8 9 0   ",
"  a b c d _ e 4 5 f g h i j k   ",
"l m c n o p q 4 r s t u v w x y ",
"z b A B C D 4 4 r E F G H I J K ",
"L M N O P Q 4 4 r R S T U V W X ",
"Y Z `  ...4 4 4 r R +.@.#.$.%.&.",
"*.=.-.;.>.4 4 4 r R R ,.#.'.).!.",
"~.{.].^./.4 4 4 (.R R _.:.<.[.}.",
"  |.1.2.4 3.4.5.6.7.8.9.0.a.b.  ",
"  c.d.e.f.g.h.i.j.j.k.l.m.n.o.  ",
"    p.q.r.h.i.s.t.u.v.w.x.y.    ",
"      z.A.B.i.C.D.v.E.F.G.      ",
"          H.I.J.K.L.M.          "};
